<svg width="168" height="153" viewBox="0 0 168 153" fill="none" xmlns="http://www.w3.org/2000/svg">
<path d="M41.4083 152.573V49.2237H23.0151C22.7868 49.628 22.5586 50.0771 22.3304 50.4364C21.874 51.1552 21.3263 51.8291 20.7786 52.3681L20.6873 52.4131C19.6832 53.4463 18.4053 54.2549 17.0361 54.8388C15.6668 55.3779 14.1607 55.6922 12.6089 55.6922C11.0114 55.6922 9.55097 55.3779 8.18174 54.8388C6.76688 54.2549 5.48899 53.4013 4.34797 52.3681C3.29823 51.3349 2.43099 50.0772 1.83765 48.6846C1.28997 47.292 0.970459 45.8545 0.970459 44.3271C0.970459 42.7549 1.28997 41.3175 1.83765 39.9698C2.43099 38.5772 3.29823 37.3194 4.34797 36.2862C5.44335 35.253 6.67562 34.3995 8.09048 33.8155L8.18174 33.7706C9.50533 33.2315 11.0115 32.9171 12.5176 32.9171C14.0694 32.9171 15.5756 33.2315 16.9448 33.7706C18.3597 34.3546 19.6376 35.2081 20.6873 36.2413L20.7786 36.3311C21.3263 36.8702 21.7827 37.4093 22.1935 38.0382C22.4217 38.3976 22.6499 38.712 22.7869 39.0714H46.5657C47.9806 39.0714 49.3042 39.6554 50.217 40.5538C51.1298 41.4972 51.7232 42.7549 51.7232 44.1474V152.753L67.241 152.933V22.5402C66.8303 22.3606 66.4653 22.136 66.1003 21.9115L66.0544 21.9113C65.3698 21.4621 64.7764 20.968 64.2288 20.429C63.179 19.3508 62.3119 18.1379 61.7185 16.7454L61.6728 16.6554C61.1251 15.3078 60.8057 13.8703 60.8057 12.343C60.8057 10.8157 61.1251 9.33327 61.6728 7.98563C62.2662 6.59306 63.1334 5.29034 64.1831 4.30208C65.2329 3.26889 66.5108 2.41541 67.9256 1.83143C69.3405 1.29237 70.801 0.97793 72.3528 0.97793C73.9502 0.97793 75.4108 1.29237 76.78 1.83143C78.1949 2.41541 79.4728 3.26889 80.5225 4.30208C81.5722 5.38019 82.4395 6.59306 83.0328 7.98563L83.0784 8.07554C83.6261 9.42318 83.8999 10.8606 83.8999 12.343C83.8999 13.9153 83.5805 15.3528 83.0328 16.7004C82.4395 18.093 81.5722 19.3508 80.5225 20.384C79.9748 20.923 79.3358 21.4621 78.6056 21.8664C78.2405 22.091 77.8297 22.3156 77.4646 22.4952V152.573H95.3558V12.8822C95.3558 11.4896 95.9491 10.2317 96.8619 9.28838C97.7747 8.34502 99.0527 7.80601 100.513 7.80601H138.806C139.034 7.35681 139.262 6.86263 139.536 6.41343C140.038 5.64976 140.632 4.88602 141.271 4.25711C142.366 3.22392 143.598 2.37045 145.013 1.78647L145.104 1.7416C146.474 1.20254 147.934 0.932983 149.44 0.932983C150.992 0.932983 152.498 1.24741 153.867 1.78647C155.282 2.37045 156.56 3.22392 157.701 4.25711C158.751 5.2903 159.618 6.54819 160.211 7.94076C160.759 9.33333 161.079 10.7708 161.079 12.2981C161.079 13.8703 160.759 15.3078 160.211 16.6554C159.618 18.048 158.751 19.3059 157.701 20.339C156.652 21.3722 155.374 22.2257 153.959 22.8097C152.589 23.3488 151.083 23.6633 149.531 23.6633C147.934 23.6633 146.474 23.3488 145.104 22.8097C143.69 22.2257 142.412 21.3722 141.316 20.339C140.814 19.8449 140.403 19.3508 139.993 18.7668C139.81 18.4973 139.627 18.1829 139.445 17.9134H105.762V152.573H120.367V52.6826C120.367 51.29 120.96 50.0321 121.873 49.1337C122.832 48.1904 124.11 47.6514 125.524 47.6514H146.017C146.2 47.2924 146.383 46.9322 146.656 46.5732C147.113 45.8994 147.615 45.2706 148.162 44.7315L148.254 44.6416C149.303 43.6533 150.536 42.8447 151.95 42.2607C153.32 41.7216 154.826 41.4073 156.378 41.4073C157.929 41.4073 159.436 41.7216 160.805 42.2607L160.896 42.3057C162.311 42.8896 163.543 43.6983 164.593 44.7315L164.639 44.8213C165.688 45.8545 166.51 47.0675 167.103 48.4151C167.651 49.7628 167.97 51.2451 167.97 52.7725C167.97 54.2998 167.651 55.7822 167.103 57.1298C166.51 58.5224 165.643 59.8252 164.593 60.8134L164.502 60.9032C163.452 61.8914 162.174 62.7001 160.805 63.2841C159.39 63.8231 157.929 64.1376 156.378 64.1376C154.826 64.1376 153.32 63.8231 151.95 63.2841C150.536 62.7001 149.212 61.8467 148.208 60.8134C147.615 60.2295 147.067 59.6005 146.611 58.8818C146.337 58.5224 146.154 58.1181 145.926 57.7138H130.682V152.573H120.367V152.663L105.762 152.624V152.573H95.3558V152.663H77.4646V152.573L67.241 152.933L51.7232 152.753L41.4083 152.573Z" fill="#242B36"/>
</svg>
